<?xml version="1.0" encoding="UTF-8" standalone="no"?>
<svg width="60px" height="60px" viewBox="0 0 60 60" version="1.1" xmlns="http://www.w3.org/2000/svg" xmlns:xlink="http://www.w3.org/1999/xlink">
    <!-- Generator: Sketch 40.1 (33804) - http://www.bohemiancoding.com/sketch -->
    <title>30 -Steam- (social, media, communication, retro)</title>
    <desc>Created with Sketch.</desc>
    <defs></defs>
    <g id="Page-1" stroke="none" stroke-width="1" fill="none" fill-rule="evenodd">
        <g id="Icons" transform="translate(-1200.000000, -618.000000)">
            <g id="30--Steam--(social,-media,-communication,-retro)" transform="translate(1201.000000, 619.000000)">
                <path d="M48,58.0001 L10,58.0001 C4.477,58.0001 0,53.5231 0,48.0001 L0,10.0001 C0,4.4771 4.477,0.0001 10,0.0001 L48,0.0001 C53.523,0.0001 58,4.4771 58,10.0001 L58,48.0001 C58,53.5231 53.523,58.0001 48,58.0001" id="Fill-55" fill="#000000"></path>
                <path d="M48,58.0001 L10,58.0001 C4.477,58.0001 0,53.5231 0,48.0001 L0,10.0001 C0,4.4771 4.477,0.0001 10,0.0001 L48,0.0001 C53.523,0.0001 58,4.4771 58,10.0001 L58,48.0001 C58,53.5231 53.523,58.0001 48,58.0001 L48,58.0001 Z" id="Stroke-56" stroke="#000000" stroke-width="2"></path>
                <path d="M42,33.0001 C34.832,33.0001 29,27.1681 29,20.0001 C29,12.8321 34.832,7.0001 42,7.0001 C49.168,7.0001 55,12.8321 55,20.0001 C55,27.1681 49.168,33.0001 42,33.0001" id="Fill-141" fill="#FFFFFF"></path>
                <path d="M42,27.0001 C38.14,27.0001 35,23.8601 35,20.0001 C35,16.1401 38.14,13.0001 42,13.0001 C45.86,13.0001 49,16.1401 49,20.0001 C49,23.8601 45.86,27.0001 42,27.0001 L42,27.0001 Z" id="Stroke-142" stroke="#000000" stroke-width="2"></path>
                <path d="M21,35.0001 C20.066,35.0001 19.236,35.1701 18.447,35.5511 L19.996,36.2071 C22.265,37.0681 23.481,39.4261 22.725,41.5021 L22.725,41.5021 C21.965,43.5911 19.494,44.6131 17.195,43.7911 L15.472,43.1011 C16.341,45.3441 18.45,47.0001 21,47.0001 C24.314,47.0001 27,44.3141 27,41.0001 C27,37.6861 24.314,35.0001 21,35.0001 L21,35.0001 Z" id="Stroke-143" stroke="#000000" stroke-width="2"></path>
                <path d="M21.79,28.0402 C28.32,28.4362 33.553,33.6642 33.957,40.1932 L44.777,32.5832 C43.94,32.7532 43.074,32.8442 42.187,32.8442 C35.019,32.8442 29.187,27.0122 29.187,19.8442 C29.187,18.7252 29.344,17.6452 29.611,16.6092 L21.79,28.0402 Z" id="Fill-149" fill="#FFFFFF"></path>
                <path d="M20.9984,30.0001 C18.6364,30.0001 16.5804,30.6321 14.8434,31.8501 L20.7774,34.3661 C23.9774,35.5791 25.7274,39.1001 24.6054,42.1861 C23.7444,44.5491 21.4714,46.0751 18.8154,46.0751 C18.0374,46.0751 17.2654,45.9401 16.5214,45.6751 L10.3114,43.1871 C11.4504,48.1021 15.7994,52.0001 20.9984,52.0001 C27.0634,52.0001 31.9984,47.0661 31.9984,41.0001 C31.9984,34.9341 27.0634,30.0001 20.9984,30.0001" id="Fill-150" fill="#FFFFFF"></path>
                <path d="M3,29.0001 L19.996,36.2071 C22.265,37.0681 23.481,39.4261 22.725,41.5021 L22.725,41.5021 C21.965,43.5911 19.495,44.6141 17.195,43.7911 L3,38.1041 L3,29.0001 Z" id="Fill-151" fill="#FFFFFF"></path>
            </g>
        </g>
    </g>
</svg>