<?xml version="1.0" encoding="UTF-8" standalone="no"?> <svg id="Layer_1" data-name="Layer 1" xmlns="http://www.w3.org/2000/svg" viewBox="0 0 48 48"><title>Guitar</title><path d="M46.426,2.966,45.034,1.574a1.974,1.974,0,0,0-2.783,0L38.73,5.1a3.855,3.855,0,0,0-.946,1.531l-.4,1.21L25.9,19.32l-.056-.056c-2.324-1.98-4.488-2.985-6.433-2.985a5.182,5.182,0,0,0-3.773,1.606,5.5,5.5,0,0,0-1.143,1.671,5.138,5.138,0,0,1-4.038,3.157A10.619,10.619,0,0,0,4.146,25.74a9.706,9.706,0,0,0-3.113,7.79c.248,2.9,1.836,5.832,4.721,8.716C8.907,45.4,12.1,47,15.251,47a9.882,9.882,0,0,0,7.009-3.146,10.606,10.606,0,0,0,3.026-6.3,5.145,5.145,0,0,1,3.165-4.046,5.494,5.494,0,0,0,1.664-1.14c1.476-1.475,3.258-4.762-1.433-10.265L40.164,10.62l1.21-.4a3.855,3.855,0,0,0,1.531-.946l3.521-3.521A1.974,1.974,0,0,0,46.426,2.966ZM14.143,40.142a1,1,0,0,1-1.414,0l-4.872-4.87a1,1,0,1,1,1.414-1.414l4.872,4.87A1,1,0,0,1,14.143,40.142Zm7.332-8.667a3.5,3.5,0,1,1,0-4.95A3.5,3.5,0,0,1,21.475,31.475Z"/></svg>